<svg width="9" height="29" viewBox="0 0 9 29" fill="none" xmlns="http://www.w3.org/2000/svg">
<g id="&#240;&#159;&#166;&#134; icon &#34;Vertical Ellipsis&#34;">
<path id="Vector" d="M4.53626 10.0339C6.8187 10.0339 8.66529 11.8696 8.66529 14.1387C8.66529 16.4077 6.8187 18.2434 4.53626 18.2434C2.25382 18.2434 0.407227 16.4077 0.407227 14.1387C0.407227 11.8696 2.25382 10.0339 4.53626 10.0339ZM0.407227 4.10478C0.407227 6.3738 2.25382 8.20955 4.53626 8.20955C6.8187 8.20955 8.66529 6.3738 8.66529 4.10478C8.66529 1.83575 6.8187 0 4.53626 0C2.25382 0 0.407227 1.83575 0.407227 4.10478ZM0.407227 24.1726C0.407227 26.4416 2.25382 28.2773 4.53626 28.2773C6.8187 28.2773 8.66529 26.4416 8.66529 24.1726C8.66529 21.9035 6.8187 20.0678 4.53626 20.0678C2.25382 20.0678 0.407227 21.9035 0.407227 24.1726Z" fill="black"/>
</g>
</svg>
