<svg width="29" height="30" viewBox="0 0 29 30" fill="none" xmlns="http://www.w3.org/2000/svg">
    <path d="M28.2232 9.375H0.776786C0.347806 9.375 0 9.06018 0 8.67188V6.5625C0 5.00918 1.39109 3.75 3.10714 3.75H6.21429V0.703125C6.21429 0.314824 6.56209 0 6.99107 0H9.58036C10.0093 0 10.3571 0.314824 10.3571 0.703125V3.75H18.6429V0.703125C18.6429 0.314824 18.9907 0 19.4196 0H22.0089C22.4379 0 22.7857 0.314824 22.7857 0.703125V3.75H25.8929C27.6089 3.75 29 5.00918 29 6.5625V8.67188C29 9.06018 28.6522 9.375 28.2232 9.375ZM0.776786 11.25H28.2232C28.6522 11.25 29 11.5648 29 11.9531V27.1875C29 28.7408 27.6089 30 25.8929 30H3.10714C1.39109 30 0 28.7408 0 27.1875V11.9531C0 11.5648 0.347806 11.25 0.776786 11.25ZM22.3517 16.8719L20.5283 15.2079C20.2262 14.9323 19.7344 14.9304 19.4298 15.204L12.5658 21.3671L9.58942 18.6512C9.28731 18.3755 8.79542 18.3737 8.49085 18.6472L6.65265 20.2978C6.34809 20.5712 6.34608 21.0164 6.64825 21.2921L11.9952 26.1711C12.2973 26.4468 12.7891 26.4486 13.0937 26.1751L22.3473 17.8662C22.6519 17.5928 22.6539 17.1476 22.3517 16.8719Z" fill="white"/>
</svg>
