<svg width="30" height="30" viewBox="0 0 30 30" fill="none" xmlns="http://www.w3.org/2000/svg">
<path d="M29.6039 17.559L27.2872 15.8089C27.3968 15.2151 27.4534 14.6088 27.4534 14.0025C27.4534 13.3962 27.3968 12.79 27.2872 12.1962L29.6039 10.446C29.7786 10.3139 29.9037 10.1378 29.9624 9.94131C30.0212 9.74481 30.0108 9.53715 29.9328 9.34596L29.901 9.26471C29.2632 7.68967 28.3082 6.22959 27.0821 4.95503L27.0184 4.8894C26.8696 4.73487 26.6714 4.62378 26.4498 4.57078C26.2282 4.51778 25.9936 4.52535 25.7769 4.59251L22.9014 5.49569C21.8404 4.72689 20.6555 4.1206 19.3751 3.69557L18.8199 1.03913C18.778 0.839253 18.6682 0.655366 18.5052 0.511904C18.3422 0.368442 18.1337 0.272196 17.9073 0.235954L17.8118 0.220328C15.9691 -0.0734426 14.0309 -0.0734426 12.1882 0.220328L12.0927 0.235954C11.8663 0.272196 11.6578 0.368442 11.4948 0.511904C11.3318 0.655366 11.222 0.839253 11.1801 1.03913L10.6213 3.70807C9.35119 4.13321 8.16838 4.73918 7.11979 5.50194L4.22307 4.59251C4.00649 4.52482 3.77172 4.51697 3.54998 4.57C3.32823 4.62304 3.12999 4.73444 2.98161 4.8894L2.91795 4.95503C1.69327 6.2305 0.738413 7.69033 0.0990404 9.26471L0.0672082 9.34596C-0.0919523 9.73661 0.0389131 10.1741 0.39614 10.446L2.74111 12.2149C2.63146 12.8025 2.57841 13.4025 2.57841 13.9994C2.57841 14.5995 2.63146 15.1995 2.74111 15.7839L0.39614 17.5528C0.221402 17.685 0.0963398 17.861 0.0375831 18.0575C-0.0211735 18.254 -0.0108406 18.4617 0.0672082 18.6529L0.0990404 18.7341C0.739219 20.3092 1.68711 21.7624 2.91795 23.0438L2.98161 23.1094C3.13036 23.264 3.3286 23.375 3.55021 23.428C3.77183 23.481 4.00642 23.4735 4.22307 23.4063L7.11979 22.4969C8.17378 23.2626 9.35157 23.8688 10.6213 24.2907L11.1801 26.9597C11.222 27.1596 11.3318 27.3435 11.4948 27.4869C11.6578 27.6304 11.8663 27.7266 12.0927 27.7629L12.1882 27.7785C14.0478 28.0738 15.9522 28.0738 17.8118 27.7785L17.9073 27.7629C18.1337 27.7266 18.3422 27.6304 18.5052 27.4869C18.6682 27.3435 18.778 27.1596 18.8199 26.9597L19.3751 24.3033C20.655 23.8793 21.8465 23.2711 22.9014 22.5031L25.7769 23.4063C25.9935 23.474 26.2283 23.4818 26.45 23.4288C26.6718 23.3758 26.87 23.2644 27.0184 23.1094L27.0821 23.0438C28.3129 21.7593 29.2608 20.3092 29.901 18.7341L29.9328 18.6529C30.092 18.2685 29.9611 17.8309 29.6039 17.559ZM24.776 12.5649C24.8644 13.0368 24.9104 13.5213 24.9104 14.0057C24.9104 14.4901 24.8644 14.9745 24.776 15.4464L24.5426 16.6996L27.1846 18.6966C26.7841 19.512 26.2785 20.2838 25.6779 20.9968L22.3957 19.9686L21.2851 20.7749C20.4398 21.3874 19.4989 21.8687 18.4803 22.2062L17.1328 22.6531L16.4996 25.6846C15.5007 25.7846 14.4922 25.7846 13.4933 25.6846L12.8602 22.6469L11.5232 22.1937C10.5152 21.8562 9.57793 21.3749 8.73969 20.7655L7.6291 19.9561L4.32564 20.9936C3.72436 20.278 3.22212 19.506 2.81892 18.6935L5.48928 16.6777L5.25938 15.4276C5.17449 14.962 5.12851 14.4807 5.12851 14.0057C5.12851 13.5275 5.17096 13.0493 5.25938 12.5837L5.48928 11.3336L2.81892 9.31783C3.21859 8.50215 3.72436 7.73335 4.32564 7.01767L7.6291 8.05525L8.73969 7.24582C9.57793 6.6364 10.5152 6.15511 11.5232 5.81759L12.8637 5.37069L13.4968 2.33297C14.4907 2.23297 15.5058 2.23297 16.5032 2.33297L17.1363 5.36443L18.4838 5.81134C19.4989 6.14886 20.4433 6.63015 21.2886 7.24269L22.3992 8.049L25.6814 7.0208C26.2827 7.73647 26.785 8.5084 27.1882 9.32096L24.5461 11.318L24.776 12.5649ZM15.0035 8.19276C11.5657 8.19276 8.77859 10.6554 8.77859 13.6931C8.77859 16.7308 11.5657 19.1935 15.0035 19.1935C18.4414 19.1935 21.2285 16.7308 21.2285 13.6931C21.2285 10.6554 18.4414 8.19276 15.0035 8.19276ZM17.8048 16.1683C17.4374 16.4939 17.0007 16.7521 16.52 16.928C16.0392 17.1039 15.5239 17.1941 15.0035 17.1934C13.946 17.1934 12.9521 16.8277 12.2023 16.1683C11.8338 15.8437 11.5417 15.4579 11.3426 15.0331C11.1435 14.6083 11.0414 14.1529 11.0422 13.6931C11.0422 12.7587 11.456 11.8805 12.2023 11.218C12.9521 10.5554 13.946 10.1929 15.0035 10.1929C16.0611 10.1929 17.0549 10.5554 17.8048 11.218C18.1732 11.5426 18.4654 11.9284 18.6645 12.3532C18.8636 12.778 18.9657 13.2334 18.9649 13.6931C18.9649 14.6276 18.551 15.5058 17.8048 16.1683Z" fill="white"/>
</svg>
