<svg width="25" height="27" viewBox="0 0 25 27" fill="none" xmlns="http://www.w3.org/2000/svg">
<path d="M9.89583 3.88867C11.6916 3.88867 13.4138 4.63056 14.6835 5.95113C15.9533 7.2717 16.6667 9.06277 16.6667 10.9303C16.6667 12.6745 16.0521 14.2778 15.0417 15.5128L15.3229 15.8053H16.1458L21.3542 21.222L19.7917 22.847L14.5833 17.4303V16.5745L14.3021 16.282C13.0733 17.3723 11.5111 17.9715 9.89583 17.972C8.1001 17.972 6.37791 17.2301 5.10813 15.9095C3.83835 14.589 3.125 12.7979 3.125 10.9303C3.125 9.06277 3.83835 7.2717 5.10813 5.95113C6.37791 4.63056 8.1001 3.88867 9.89583 3.88867ZM9.89583 6.05534C7.29167 6.05534 5.20833 8.222 5.20833 10.9303C5.20833 13.6387 7.29167 15.8053 9.89583 15.8053C12.5 15.8053 14.5833 13.6387 14.5833 10.9303C14.5833 8.222 12.5 6.05534 9.89583 6.05534Z" fill="black"/>
</svg>
