<svg width="31" height="31" viewBox="0 0 31 31" fill="none" xmlns="http://www.w3.org/2000/svg">
<g id="icons8-instagram-100 1">
<g id="Group">
<path id="Vector" opacity="0.969" fill-rule="evenodd" clip-rule="evenodd" d="M7.59508 1.70503C12.7628 1.65339 17.9295 1.70505 23.0951 1.86003C26.0319 2.73022 27.9436 4.64188 28.8301 7.59503C29.0368 12.7617 29.0368 17.9284 28.8301 23.095C27.9518 26.04 26.0401 27.9517 23.0951 28.83C17.9284 29.0367 12.7618 29.0367 7.59508 28.83C4.64193 27.9436 2.73026 26.0319 1.86008 23.095C1.65341 17.9284 1.65341 12.7617 1.86008 7.59503C2.79548 4.64504 4.70715 2.6817 7.59508 1.70503ZM22.1651 6.97503C23.6092 6.82456 24.0226 7.39291 23.4051 8.68003C21.9258 8.93126 21.5125 8.36293 22.1651 6.97503ZM13.4851 8.83503C19.5242 8.41563 22.2625 11.2056 21.7001 17.205C19.7509 21.6458 16.4959 22.9375 11.9351 21.08C8.75522 18.6841 7.98022 15.6358 9.61008 11.935C10.5992 10.4894 11.8909 9.45602 13.4851 8.83503Z" fill="black"/>
</g>
<g id="Group_2">
<path id="Vector_2" opacity="0.944" fill-rule="evenodd" clip-rule="evenodd" d="M13.485 9.76495C19.0083 9.24306 21.4367 11.7231 20.77 17.2049C19.4121 20.4535 16.9838 21.6418 13.485 20.7699C9.9254 19.0907 8.8404 16.3524 10.23 12.5549C11.0067 11.2185 12.0917 10.2885 13.485 9.76495Z" fill="black"/>
</g>
</g>
</svg>
