<svg width="31" height="31" viewBox="0 0 31 31" fill="none" xmlns="http://www.w3.org/2000/svg">
<g id="icons8-twitter-100 1" clip-path="url(#clip0_3_146)">
<g id="Group">
<path id="Vector" opacity="0.952" fill-rule="evenodd" clip-rule="evenodd" d="M30.8447 6.04499C30.8447 6.35499 30.8447 6.66499 30.8447 6.97499C29.9244 7.94634 28.9428 8.87634 27.8997 9.76499C27.7283 18.645 23.5433 24.69 15.3447 27.9C9.94577 29.3486 4.77909 28.7802 -0.155273 26.195C-0.155273 25.9883 -0.155273 25.7817 -0.155273 25.575C3.04224 25.8609 5.93558 25.0859 8.52473 23.25C5.71411 22.7629 3.95743 21.1612 3.25473 18.445C3.66458 18.3923 4.02622 18.4956 4.33973 18.755C4.49473 18.6 4.64973 18.445 4.80473 18.29C2.14759 16.9488 0.907589 14.8305 1.08473 11.935C1.65244 12.3781 2.27244 12.5331 2.94473 12.4C1.18957 10.5097 0.621239 8.28803 1.23973 5.73499C1.30054 5.1813 1.55887 4.76794 2.01473 4.49499C5.51233 8.36224 9.85233 10.4806 15.0347 10.85C14.4636 7.24357 15.9102 4.76357 19.3747 3.40999C21.9957 2.83825 24.3207 3.40658 26.3497 5.11499C27.6018 4.72089 28.7901 4.20421 29.9147 3.56499C29.8944 4.79817 29.3777 5.88317 28.3647 6.81999C29.2403 6.78688 30.067 6.52856 30.8447 6.04499Z" fill="black"/>
</g>
</g>
<defs>
<clipPath id="clip0_3_146">
<rect width="31" height="31" fill="white"/>
</clipPath>
</defs>
</svg>
