<svg width="31" height="26" viewBox="0 0 31 26" fill="none" xmlns="http://www.w3.org/2000/svg">
<g id="&#240;&#159;&#166;&#134; icon &#34;Alternate Sign Out&#34;">
<path id="Vector" d="M30.1115 14.1234L19.9977 25.475C19.0946 26.4885 17.5294 25.779 17.5294 24.3263V17.8397H9.34202C8.54134 17.8397 7.89719 17.1167 7.89719 16.218V9.73138C7.89719 8.83271 8.54134 8.10972 9.34202 8.10972H17.5294V1.62309C17.5294 0.177117 19.0886 -0.539115 19.9977 0.474421L30.1115 11.826C30.6714 12.4612 30.6714 13.4882 30.1115 14.1234ZM11.7501 25.1371V22.4344C11.7501 21.9884 11.425 21.6235 11.0277 21.6235H5.97074C4.90518 21.6235 4.0443 20.6573 4.0443 19.4613V6.48807C4.0443 5.29209 4.90518 4.32586 5.97074 4.32586H11.0277C11.425 4.32586 11.7501 3.96098 11.7501 3.51503V0.812266C11.7501 0.36631 11.425 0.0014371 11.0277 0.0014371H5.97074C2.78007 0.0014371 0.191406 2.90691 0.191406 6.48807V19.4613C0.191406 23.0425 2.78007 25.948 5.97074 25.948H11.0277C11.425 25.948 11.7501 25.5831 11.7501 25.1371Z" fill="black"/>
</g>
</svg>
