<svg width="33" height="33" viewBox="0 0 33 33" fill="none" xmlns="http://www.w3.org/2000/svg">
<path d="M23.6774 30.1803C23.5408 29.8672 16.1259 25.456 16.1174 25.4502C15.0715 24.6811 14.944 23.9328 15.7878 23.503C16.5115 23.1355 17.1339 21.9509 17.6032 20.6832C17.6891 20.7211 17.7787 20.7291 17.8704 20.703C19.84 20.127 19.8752 16.152 18.5579 16.8539C19.7894 6.10988 4.91416 6.10455 6.14562 16.8544C4.82669 16.1509 4.86296 20.127 6.83202 20.703C6.92322 20.7291 7.01389 20.7211 7.09976 20.6838C7.56856 21.951 8.18989 23.1355 8.91362 23.503C9.76429 23.936 9.59629 24.6475 8.56322 25.4667C8.21869 25.7403 3.41816 28.4166 2.06296 29.3222C2.06029 29.3227 2.05549 29.3259 2.05549 29.3259H2.05709C1.49762 29.7008 1.09976 30.0123 1.02562 30.1808C0.639489 31.071 0.499756 32.5003 0.499756 32.5003H24.2032C24.2032 32.5003 24.0646 31.071 23.6774 30.1803Z" fill="#0954B0"/>
<path d="M17.8568 10.0291C18.8248 11.1149 19.8904 12.9848 19.813 15.9112C20.1885 16.1923 20.5021 16.6733 20.6088 17.4189C20.805 18.796 20.2445 21.052 18.4541 21.7544C17.9693 22.8984 17.4397 23.7059 16.8514 24.2024H32.5C32.5 24.2024 32.3602 22.7731 31.9741 21.8824C31.8376 21.5699 24.4226 17.1587 24.4146 17.1523C23.3677 16.3837 23.2408 15.6355 24.0845 15.2056C24.8082 14.8376 25.4301 13.6536 25.9 12.3859C25.9853 12.4232 26.076 12.4317 26.1672 12.4045C28.1362 11.8296 28.172 7.85466 26.8546 8.55652C28.0605 -1.96081 13.8418 -2.18108 14.3949 7.89732C15.7304 8.27066 16.9373 8.99866 17.8568 10.0291Z" fill="#0954B0"/>
</svg>
