<svg width="29" height="30" viewBox="0 0 29 30" fill="none" xmlns="http://www.w3.org/2000/svg">
    <g id="mingcute:birthday-2-fill" clip-path="url(#clip0_844_21495)">
        <g id="Group">
            <path id="Vector" d="M15.225 2.75C15.0158 2.58772 14.7614 2.5 14.5 2.5C14.2386 2.5 13.9842 2.58772 13.775 2.75C13.2712 3.1485 12.807 3.59779 12.389 4.09125C11.7571 4.8275 10.875 6.06875 10.875 7.5C10.875 8.49456 11.2569 9.44839 11.9367 10.1517C12.6166 10.8549 13.5386 11.25 14.5 11.25H7.25C6.28859 11.25 5.36656 11.6451 4.68674 12.3483C4.00692 13.0516 3.625 14.0054 3.625 15V17.5C3.625 19.045 5.32996 19.9275 6.525 19L7.33096 18.375C7.54012 18.2127 7.79451 18.125 8.05596 18.125C8.31741 18.125 8.5718 18.2127 8.78096 18.375L9.10238 18.625C9.72985 19.1118 10.493 19.375 11.2774 19.375C12.0617 19.375 12.8249 19.1118 13.4524 18.625L13.775 18.375C13.9842 18.2127 14.2386 18.125 14.5 18.125C14.7614 18.125 15.0158 18.2127 15.225 18.375L15.5476 18.625C16.1751 19.1118 16.9383 19.375 17.7226 19.375C18.507 19.375 19.2702 19.1118 19.8976 18.625L20.219 18.375C20.4282 18.2127 20.6826 18.125 20.944 18.125C21.2055 18.125 21.4599 18.2127 21.669 18.375L22.475 19C23.67 19.9275 25.375 19.045 25.375 17.5V15C25.375 14.0054 24.9931 13.0516 24.3133 12.3483C23.6334 11.6451 22.7114 11.25 21.75 11.25H14.5C15.4614 11.25 16.3834 10.8549 17.0633 10.1517C17.7431 9.44839 18.125 8.49456 18.125 7.5C18.125 6.06875 17.2429 4.8275 16.611 4.09125C16.1929 3.60375 15.7289 3.14125 15.225 2.75ZM4.83333 21.7688V25C4.83333 25.663 5.08795 26.2989 5.54116 26.7678C5.99437 27.2366 6.60906 27.5 7.25 27.5H21.75C22.3909 27.5 23.0056 27.2366 23.4588 26.7678C23.9121 26.2989 24.1667 25.663 24.1667 25V21.7688C23.8855 21.8742 23.5833 21.9048 23.2877 21.8578C22.9921 21.8109 22.7126 21.6878 22.475 21.5L21.669 20.875C21.4599 20.7127 21.2055 20.625 20.944 20.625C20.6826 20.625 20.4282 20.7127 20.219 20.875L19.8976 21.125C19.2702 21.6118 18.507 21.875 17.7226 21.875C16.9383 21.875 16.1751 21.6118 15.5476 21.125L15.225 20.875C15.0158 20.7127 14.7614 20.625 14.5 20.625C14.2386 20.625 13.9842 20.7127 13.775 20.875L13.4524 21.125C12.8249 21.6118 12.0617 21.875 11.2774 21.875C10.493 21.875 9.72985 21.6118 9.10238 21.125L8.78096 20.875C8.5718 20.7127 8.31741 20.625 8.05596 20.625C7.79451 20.625 7.54012 20.7127 7.33096 20.875L6.525 21.5C6.28737 21.6878 6.00793 21.8109 5.71234 21.8578C5.41675 21.9048 5.11449 21.8742 4.83333 21.7688Z" fill="#FAFAFA"/>
        </g>
    </g>
    <defs>
        <clipPath id="clip0_844_21495">
            <rect width="29" height="30" fill="white"/>
        </clipPath>
    </defs>
</svg>
