<svg width="36" height="38" viewBox="0 0 36 38" fill="none" xmlns="http://www.w3.org/2000/svg">
<g id="&#240;&#159;&#166;&#134; icon &#34;dashboard&#34;">
<path id="Vector" d="M5.91831 20.474H14.7959C15.6096 20.474 16.2754 19.7653 16.2754 18.8991V6.29966C16.2754 5.43345 15.6096 4.72473 14.7959 4.72473H5.91831C5.10454 4.72473 4.43872 5.43345 4.43872 6.29966V18.8991C4.43872 19.7653 5.10454 20.474 5.91831 20.474ZM5.91831 33.0735H14.7959C15.6096 33.0735 16.2754 32.3648 16.2754 31.4986V25.1988C16.2754 24.3326 15.6096 23.6239 14.7959 23.6239H5.91831C5.10454 23.6239 4.43872 24.3326 4.43872 25.1988V31.4986C4.43872 32.3648 5.10454 33.0735 5.91831 33.0735ZM20.7142 33.0735H29.5918C30.4055 33.0735 31.0714 32.3648 31.0714 31.4986V18.8991C31.0714 18.0329 30.4055 17.3242 29.5918 17.3242H20.7142C19.9004 17.3242 19.2346 18.0329 19.2346 18.8991V31.4986C19.2346 32.3648 19.9004 33.0735 20.7142 33.0735ZM19.2346 6.29966V12.5994C19.2346 13.4656 19.9004 14.1743 20.7142 14.1743H29.5918C30.4055 14.1743 31.0714 13.4656 31.0714 12.5994V6.29966C31.0714 5.43345 30.4055 4.72473 29.5918 4.72473H20.7142C19.9004 4.72473 19.2346 5.43345 19.2346 6.29966Z" fill="black"/>
</g>
</svg>
