<svg width="37" height="37" viewBox="0 0 37 37" fill="none" xmlns="http://www.w3.org/2000/svg">
<path d="M26.1778 29.6805C26.0413 29.3674 18.6263 24.9562 18.6177 24.9503C17.5719 24.1812 17.4444 23.433 18.2881 23.0031C19.0119 22.6356 19.6343 21.4511 20.1036 20.1833C20.1895 20.2212 20.2791 20.2292 20.3708 20.2031C22.3404 19.6271 22.3756 15.6521 21.0583 16.354C22.2898 5.60985 7.41444 5.60452 8.64592 16.3545C7.32697 15.651 7.36324 19.6271 9.33233 20.2031C9.42353 20.2292 9.51419 20.2212 9.60006 20.1839C10.0689 21.4511 10.6902 22.6356 11.4139 23.0031C12.2646 23.4362 12.0966 24.1476 11.0635 24.9668C10.719 25.2404 5.91843 27.9167 4.56321 28.8223C4.56055 28.8229 4.55575 28.8261 4.55575 28.8261H4.55735C3.99788 29.201 3.60001 29.5125 3.52587 29.681C3.13973 30.5712 3 32.0005 3 32.0005H26.7037C26.7037 32.0005 26.565 30.5712 26.1778 29.6805Z" fill="black"/>
<path d="M20.3565 9.52914C21.3245 10.615 22.3902 12.4849 22.3128 15.4113C22.6883 15.6924 23.0019 16.1735 23.1086 16.9191C23.3048 18.2962 22.7443 20.5522 20.9539 21.2546C20.4691 22.3986 19.9395 23.2061 19.3512 23.7026H34.9999C34.9999 23.7026 34.8601 22.2733 34.474 21.3826C34.3375 21.0701 26.9225 16.6588 26.9145 16.6524C25.8675 15.8839 25.7406 15.1356 26.5843 14.7057C27.3081 14.3377 27.9299 13.1537 28.3998 11.886C28.4851 11.9233 28.5758 11.9318 28.667 11.9046C30.6361 11.3297 30.6718 7.35472 29.3545 8.0566C30.5604 -2.46084 16.3416 -2.6811 16.8946 7.39739C18.2301 7.77073 19.4371 8.49873 20.3565 9.52914Z" fill="black"/>
</svg>
