<svg width="25" height="27" viewBox="0 0 25 27" fill="none" xmlns="http://www.w3.org/2000/svg">
    <path d="M0 12.8158L6.25 0.5L12.5 12.8158H0ZM6.25 26.5C4.875 26.5 3.69792 25.964 2.71875 24.8921C1.73958 23.8202 1.25 22.5316 1.25 21.0263C1.25 19.5211 1.73958 18.2325 2.71875 17.1605C3.69792 16.0886 4.875 15.5526 6.25 15.5526C7.625 15.5526 8.80208 16.0886 9.78125 17.1605C10.7604 18.2325 11.25 19.5211 11.25 21.0263C11.25 22.5316 10.7604 23.8202 9.78125 24.8921C8.80208 25.964 7.625 26.5 6.25 26.5ZM13.75 26.5V15.5526H23.75V26.5H13.75ZM18.75 12.8158C17.5625 11.7211 16.5679 10.7974 15.7662 10.0447C14.9646 9.29211 14.3237 8.6307 13.8437 8.06053C13.3637 7.49035 13.02 6.95439 12.8125 6.45263C12.605 5.95088 12.5008 5.41491 12.5 4.84474C12.5 3.81842 12.8283 2.95175 13.485 2.24474C14.1417 1.53772 14.9592 1.18421 15.9375 1.18421C16.5 1.18421 17.0262 1.32698 17.5162 1.61253C18.0062 1.89807 18.4175 2.29126 18.75 2.79211C19.0833 2.29035 19.495 1.89716 19.985 1.61253C20.475 1.32789 21.0008 1.18512 21.5625 1.18421C22.5417 1.18421 23.3596 1.53772 24.0162 2.24474C24.6729 2.95175 25.0008 3.81842 25 4.84474C25 5.41491 24.8958 5.95088 24.6875 6.45263C24.4792 6.95439 24.1354 7.49035 23.6562 8.06053C23.1771 8.6307 22.5367 9.29211 21.735 10.0447C20.9333 10.7974 19.9383 11.7211 18.75 12.8158Z" fill="white"/>
</svg>
